<svg xmlns="http://www.w3.org/2000/svg" viewBox="0 0 172 28"><path fill="currentColor" d="M42 8.56h-5.95v19.08H42V8.56Zm14.29-.37a7 7 0 0 0-5.59 2.59V8.56h-6v19.08h5.93v-9.65c0-2.95 1.37-4.39 3.39-4.39 2.01 0 2.95.89 2.95 4.06v9.92h5.94v-11.4c.03-6.03-2.78-7.99-6.62-7.99Zm14.93.37h-5.94v19.08h5.94V8.56Zm30.27 2.65V8.56h-6.02v19.08h5.95v-8.6c0-2.45 1.69-4.26 5.47-4.33V8.56a6.16 6.16 0 0 0-5.4 2.65Zm13.46-2.65h-5.93v19.08h5.93V8.56Zm41.21 0h-6.87l-5.35 6.85V1.74h-6v25.84h5.85v-5.37l1.84-2.12 4.15 7.5h6.59l-6.49-11.44 6.28-7.6Zm9.35 6.93c-1.86-.66-2.55-1.1-2.55-1.73 0-.63.8-1.02 1.47-1.02 1.6.13 3.09.9 4.15 2.13l2.8-4.25c-2-1.59-4.48-2.42-7.02-2.36-3.88 0-6.88 2.27-6.88 6.09 0 3.81 2.73 5.2 5.86 6.2 2.3.72 2.88 1.14 2.88 1.73 0 .59-.6 1.14-1.8 1.14a7.1 7.1 0 0 1-4.85-2.15l-2.76 3.89a10.88 10.88 0 0 0 7.45 2.72c5.08 0 7.55-2.59 7.55-6.12 0-3.54-2.2-4.83-6.3-6.27Zm-39.18 7.08a4.05 4.05 0 0 1-2.96-1.34 4.24 4.24 0 0 1-1.1-3.12 4.19 4.19 0 0 1 1.06-3.15 4.02 4.02 0 0 1 6.48.78h6.3a9.7 9.7 0 0 0-3.53-5.62 9.3 9.3 0 0 0-6.25-1.93c-6.02 0-10.08 4.1-10.08 9.89 0 5.8 4.06 9.8 10.08 9.8 2.3.14 4.57-.58 6.39-2.03a9.7 9.7 0 0 0 3.46-5.86h-6.23a3.91 3.91 0 0 1-1.41 1.88c-.65.46-1.42.7-2.21.7ZM83.47 8.2c-1.4 0-2.77.23-4.08.7V1.74h-6.02V18.1c0 5.74 4.09 9.84 10.16 9.84a9.21 9.21 0 0 0 7.14-2.65 9.66 9.66 0 0 0 2.9-7.19 9.92 9.92 0 0 0-2.91-7.24 9.45 9.45 0 0 0-7.2-2.68Zm0 14.38a4.05 4.05 0 0 1-2.97-1.34 4.25 4.25 0 0 1-1.11-3.12A4.26 4.26 0 0 1 80.48 15a4.06 4.06 0 0 1 2.96-1.32A3.98 3.98 0 0 1 86.41 15a4.18 4.18 0 0 1 1.09 3.11 4.34 4.34 0 0 1-1.1 3.1 4.15 4.15 0 0 1-2.93 1.36ZM25.4 7.93a7.89 7.89 0 0 0-6.55 3.47 8 8 0 0 0-9.76-2.81 7.91 7.91 0 0 0-2.69 1.94v-2H0V27.6h10.04v-2.43a.4.4 0 0 0-.07-.26.39.39 0 0 0-.22-.15 5.09 5.09 0 0 1-2.61-1.95 5.3 5.3 0 0 1-.94-3.17 5.07 5.07 0 0 1 1.27-3.6 4.85 4.85 0 0 1 3.4-1.6 4.75 4.75 0 0 1 3.4 1.6 4.98 4.98 0 0 1 1.28 3.6 5.3 5.3 0 0 1-2.7 4.63.38.38 0 0 1-.53-.16.4.4 0 0 1-.04-.2v-2.97a.43.43 0 0 0-.16-.24.42.42 0 0 0-.27-.09c-.1 0-.2.04-.28.12a.44.44 0 0 0-.14.28v6.57h7.2V24.9a.18.18 0 0 1 .05-.14.17.17 0 0 1 .13-.05h1.51a.17.17 0 0 1 .13.06.17.17 0 0 1 .04.13v2.7h2.13v-4.52l-2.98-3.19a.2.2 0 0 1 .06-.26.18.18 0 0 1 .1-.03h6.9l2.88 3.12a.18.18 0 0 1 .04.2.17.17 0 0 1-.07.07.17.17 0 0 1-.1.02h-4.57a.17.17 0 0 0-.14.05.17.17 0 0 0-.05.14v.16c0 .05.03.1.06.13s.08.04.13.04l4.38.46a.15.15 0 0 1 .13.04.16.16 0 0 1 .04.13v3.36h3.96V16.05a8.32 8.32 0 0 0-2.37-5.74 7.93 7.93 0 0 0-5.62-2.38Zm14.45-1.1a3.37 3.37 0 0 0 1.69-1.02 3.5 3.5 0 0 0-.74-5.3 3.32 3.32 0 0 0-3.76.16 3.46 3.46 0 0 0-1.3 3.62c.22.88.76 1.64 1.51 2.12.76.47 1.66.63 2.53.43h.07Zm29.22 0a3.37 3.37 0 0 0 1.7-1.02 3.5 3.5 0 0 0-.75-5.3 3.32 3.32 0 0 0-3.75.16 3.46 3.46 0 0 0-1.3 3.62c.22.88.76 1.64 1.51 2.12.76.47 1.66.63 2.53.43h.06Zm43.76 0a3.37 3.37 0 0 0 1.7-1.02 3.5 3.5 0 0 0-.75-5.3 3.33 3.33 0 0 0-3.76.16 3.47 3.47 0 0 0-1.29 3.62c.21.88.76 1.64 1.51 2.12.75.47 1.66.63 2.52.43h.07Z"></path></svg>